{
  "accessors": [
    {
      "bufferView": 2,
      "componentType": 5126,
      "count": 172,
      "max": [
        -32.220199584960938,
        -42.089698791503906,
        151.08590698242188
      ],
      "min": [
        -33.220199584960938,
        -43.089698791503906,
        51.085899353027344
      ],
      "type": "VEC3"
    },
    {
      "bufferView": 2,
      "byteOffset": 2064,
      "componentType": 5126,
      "count": 172,
      "max": [
        0.99790477752685547,
        0.99790477752685547,
        1
      ],
      "min": [
        -0.99790477752685547,
        -0.99790477752685547,
        -1
      ],
      "type": "VEC3"
    },
    {
      "bufferView": 3,
      "componentType": 5126,
      "count": 172,
      "max": [
        1,
        0.99998337030410767,
        0.99790477752685547,
        1
      ],
      "min": [
        -0.99998337030410767,
        -0.99984973669052124,
        -0.99790477752685547,
        -1
      ],
      "type": "VEC4"
    },
    {
      "bufferView": 0,
      "componentType": 5125,
      "count": 864,
      "max": [
        171
      ],
      "min": [
        0
      ],
      "type": "SCALAR"
    },
    {
      "bufferView": 2,
      "byteOffset": 4128,
      "componentType": 5126,
      "count": 50,
      "max": [
        -26.74690055847168,
        -36.747501373291016,
        158.59089660644531
      ],
      "min": [
        -38.303298950195312,
        -48.303901672363281,
        51.131500244140625
      ],
      "type": "VEC3"
    },
    {
      "bufferView": 2,
      "byteOffset": 4728,
      "componentType": 5126,
      "count": 50,
      "max": [
        1,
        0,
        -0
      ],
      "min": [
        0,
        -1,
        -0
      ],
      "type": "VEC3"
    },
    {
      "bufferView": 3,
      "byteOffset": 2752,
      "componentType": 5126,
      "count": 50,
      "max": [
        1,
        1,
        0,
        1
      ],
      "min": [
        0,
        0,
        0,
        1
      ],
      "type": "VEC4"
    },
    {
      "bufferView": 1,
      "componentType": 5126,
      "count": 50,
      "max": [
        0.5461999773979187,
        0.98830002546310425
      ],
      "min": [
        0.42649999260902405,
        0.008999999612569809
      ],
      "type": "VEC2"
    },
    {
      "bufferView": 0,
      "byteOffset": 3456,
      "componentType": 5125,
      "count": 192,
      "max": [
        49
      ],
      "min": [
        0
      ],
      "type": "SCALAR"
    },
    {
      "bufferView": 2,
      "byteOffset": 5328,
      "componentType": 5126,
      "count": 1525,
      "max": [
        -29.18079948425293,
        -38.991199493408203,
        39.471199035644531
      ],
      "min": [
        -36.328300476074219,
        -46.190601348876953,
        2.6006999015808105
      ],
      "type": "VEC3"
    },
    {
      "bufferView": 2,
      "byteOffset": 23628,
      "componentType": 5126,
      "count": 1525,
      "max": [
        0.99976652860641479,
        0.99993789196014404,
        1
      ],
      "min": [
        -0.99984687566757202,
        -0.99964982271194458,
        -1
      ],
      "type": "VEC3"
    },
    {
      "bufferView": 0,
      "byteOffset": 4224,
      "componentType": 5125,
      "count": 7926,
      "max": [
        1524
      ],
      "min": [
        0
      ],
      "type": "SCALAR"
    },
    {
      "bufferView": 2,
      "byteOffset": 41928,
      "componentType": 5126,
      "count": 1402,
      "max": [
        -29.755399703979492,
        -39.645801544189453,
        48.803199768066406
      ],
      "min": [
        -35.681098937988281,
        -45.571399688720703,
        41.003200531005859
      ],
      "type": "VEC3"
    },
    {
      "bufferView": 2,
      "byteOffset": 58752,
      "componentType": 5126,
      "count": 1402,
      "max": [
        0.99984687566757202,
        0.99984687566757202,
        1
      ],
      "min": [
        -0.99984687566757202,
        -0.99984687566757202,
        -1
      ],
      "type": "VEC3"
    },
    {
      "bufferView": 0,
      "byteOffset": 35928,
      "componentType": 5125,
      "count": 8400,
      "max": [
        1401
      ],
      "min": [
        0
      ],
      "type": "SCALAR"
    },
    {
      "bufferView": 2,
      "byteOffset": 75576,
      "componentType": 5126,
      "count": 1950,
      "max": [
        -29.18079948425293,
        -38.991199493408203,
        9.1922998428344727
      ],
      "min": [
        -36.328300476074219,
        -46.190601348876953,
        2.6006999015808105
      ],
      "type": "VEC3"
    },
    {
      "bufferView": 2,
      "byteOffset": 98976,
      "componentType": 5126,
      "count": 1950,
      "max": [
        0.9998621940612793,
        0.99984687566757202,
        0.97578495740890503
      ],
      "min": [
        -0.99919497966766357,
        -0.99984687566757202,
        -0.97578495740890503
      ],
      "type": "VEC3"
    },
    {
      "bufferView": 0,
      "byteOffset": 69528,
      "componentType": 5125,
      "count": 10800,
      "max": [
        1949
      ],
      "min": [
        0
      ],
      "type": "SCALAR"
    },
    {
      "bufferView": 2,
      "byteOffset": 122376,
      "componentType": 5126,
      "count": 4322,
      "max": [
        -29.85420036315918,
        -40.021800994873047,
        34.034698486328125
      ],
      "min": [
        -35.587100982666016,
        -45.233501434326172,
        9.5986003875732422
      ],
      "type": "VEC3"
    },
    {
      "bufferView": 2,
      "byteOffset": 174240,
      "componentType": 5126,
      "count": 4322,
      "max": [
        1,
        1,
        1
      ],
      "min": [
        -1,
        -1,
        -1
      ],
      "type": "VEC3"
    },
    {
      "bufferView": 0,
      "byteOffset": 112728,
      "componentType": 5125,
      "count": 25920,
      "max": [
        4321
      ],
      "min": [
        0
      ],
      "type": "SCALAR"
    },
    {
      "bufferView": 2,
      "byteOffset": 226104,
      "componentType": 5126,
      "count": 1242,
      "max": [
        -28.174299240112305,
        -38.229698181152344,
        5.7423000335693359
      ],
      "min": [
        -36.978199005126953,
        -47.114601135253906,
        0.40779998898506165
      ],
      "type": "VEC3"
    },
    {
      "bufferView": 2,
      "byteOffset": 241008,
      "componentType": 5126,
      "count": 1242,
      "max": [
        0.99984687566757202,
        0.99984687566757202,
        1
      ],
      "min": [
        -0.99984687566757202,
        -0.99999821186065674,
        -1
      ],
      "type": "VEC3"
    },
    {
      "bufferView": 0,
      "byteOffset": 216408,
      "componentType": 5125,
      "count": 6306,
      "max": [
        1241
      ],
      "min": [
        0
      ],
      "type": "SCALAR"
    },
    {
      "bufferView": 2,
      "byteOffset": 255912,
      "componentType": 5126,
      "count": 1904,
      "max": [
        -27.916799545288086,
        -37.807201385498047,
        52.011501312255859
      ],
      "min": [
        -37.519699096679688,
        -47.409999847412109,
        48.731399536132812
      ],
      "type": "VEC3"
    },
    {
      "bufferView": 2,
      "byteOffset": 278760,
      "componentType": 5126,
      "count": 1904,
      "max": [
        0.99984687566757202,
        0.99984687566757202,
        0.99945241212844849
      ],
      "min": [
        -0.99984687566757202,
        -0.99984687566757202,
        -0.99999117851257324
      ],
      "type": "VEC3"
    },
    {
      "bufferView": 0,
      "byteOffset": 241632,
      "componentType": 5125,
      "count": 11328,
      "max": [
        1903
      ],
      "min": [
        0
      ],
      "type": "SCALAR"
    },
    {
      "bufferView": 2,
      "byteOffset": 301608,
      "componentType": 5126,
      "count": 2598,
      "max": [
        -29.169099807739258,
        -39.126598358154297,
        48.845199584960938
      ],
      "min": [
        -36.221298217773438,
        -46.092998504638672,
        40.311199188232422
      ],
      "type": "VEC3"
    },
    {
      "bufferView": 2,
      "byteOffset": 332784,
      "componentType": 5126,
      "count": 2598,
      "max": [
        0.9999997615814209,
        0.99984687566757202,
        1
      ],
      "min": [
        -0.9999997615814209,
        -0.99991500377655029,
        -1
      ],
      "type": "VEC3"
    },
    {
      "bufferView": 0,
      "byteOffset": 286944,
      "componentType": 5125,
      "count": 15240,
      "max": [
        2597
      ],
      "min": [
        0
      ],
      "type": "SCALAR"
    },
    {
      "bufferView": 2,
      "byteOffset": 363960,
      "componentType": 5126,
      "count": 13140,
      "max": [
        -29.529199600219727,
        -39.159599304199219,
        40.511798858642578
      ],
      "min": [
        -36.417598724365234,
        -46.037101745605469,
        9.0595998764038086
      ],
      "type": "VEC3"
    },
    {
      "bufferView": 2,
      "byteOffset": 521640,
      "componentType": 5126,
      "count": 13140,
      "max": [
        1,
        0.99999356269836426,
        1
      ],
      "min": [
        -0.99999845027923584,
        -0.99990403652191162,
        -1
      ],
      "type": "VEC3"
    },
    {
      "bufferView": 0,
      "byteOffset": 347904,
      "componentType": 5125,
      "count": 77712,
      "max": [
        13139
      ],
      "min": [
        0
      ],
      "type": "SCALAR"
    }
  ],
  "asset": {
    "extras": {
      "author": "costorella (https://sketchfab.com/costorella)",
      "license": "CC-BY-4.0 (http://creativecommons.org/licenses/by/4.0/)",
      "source": "https://sketchfab.com/models/3020eb7ccf074bbaa83a89e749eac0f8",
      "title": "lightsaber"
    },
    "generator": "Sketchfab-3.28.5",
    "version": "2.0"
  },
  "bufferViews": [
    {
      "buffer": 0,
      "byteLength": 658752,
      "byteOffset": 0,
      "name": "floatBufferViews",
      "target": 34963
    },
    {
      "buffer": 0,
      "byteLength": 400,
      "byteOffset": 658752,
      "byteStride": 8,
      "name": "floatBufferViews",
      "target": 34962
    },
    {
      "buffer": 0,
      "byteLength": 679320,
      "byteOffset": 659152,
      "byteStride": 12,
      "name": "floatBufferViews",
      "target": 34962
    },
    {
      "buffer": 0,
      "byteLength": 3552,
      "byteOffset": 1338472,
      "byteStride": 16,
      "name": "floatBufferViews",
      "target": 34962
    }
  ],
  "buffers": [
    {
      "byteLength": 1342024,
      "uri": "scene.bin"
    }
  ],
  "images": [
    {
      "uri": "textures/Material__90_baseColor.png"
    }
  ],
  "materials": [
    {
      "doubleSided": true,
      "emissiveFactor": [
        0.5,
        0.5,
        0.5
      ],
      "name": "Material__14",
      "pbrMetallicRoughness": {
        "baseColorFactor": [
          1,
          1,
          1,
          1
        ],
        "metallicFactor": 0,
        "roughnessFactor": 0.20000000000000001
      }
    },
    {
      "alphaMode": "BLEND",
      "doubleSided": true,
      "emissiveFactor": [
        0.68508197189999998,
        0.8556051858,
        0.47524559659999999
      ],
      "name": "Material__90",
      "pbrMetallicRoughness": {
        "baseColorFactor": [
          0.086578065999999995,
          1,
          0.0027398011000000001,
          1
        ],
        "baseColorTexture": {
          "index": 0,
          "texCoord": 0
        },
        "metallicFactor": 0,
        "roughnessFactor": 0
      }
    },
    {
      "doubleSided": true,
      "emissiveFactor": [
        0,
        0,
        0
      ],
      "name": "black_plastic",
      "pbrMetallicRoughness": {
        "baseColorFactor": [
          0,
          0,
          0,
          1
        ],
        "metallicFactor": 0.53000000000000003,
        "roughnessFactor": 0.55000000000000004
      }
    },
    {
      "doubleSided": true,
      "emissiveFactor": [
        0,
        0,
        0
      ],
      "name": "metal",
      "pbrMetallicRoughness": {
        "baseColorFactor": [
          1,
          1,
          1,
          1
        ],
        "metallicFactor": 1,
        "roughnessFactor": 0.23999999999999999
      }
    }
  ],
  "meshes": [
    {
      "primitives": [
        {
          "attributes": {
            "NORMAL": 1,
            "POSITION": 0,
            "TANGENT": 2
          },
          "indices": 3,
          "material": 0,
          "mode": 4
        }
      ]
    },
    {
      "primitives": [
        {
          "attributes": {
            "NORMAL": 5,
            "POSITION": 4,
            "TANGENT": 6,
            "TEXCOORD_0": 7
          },
          "indices": 8,
          "material": 1,
          "mode": 4
        }
      ]
    },
    {
      "primitives": [
        {
          "attributes": {
            "NORMAL": 10,
            "POSITION": 9
          },
          "indices": 11,
          "material": 2,
          "mode": 4
        }
      ]
    },
    {
      "primitives": [
        {
          "attributes": {
            "NORMAL": 13,
            "POSITION": 12
          },
          "indices": 14,
          "material": 2,
          "mode": 4
        }
      ]
    },
    {
      "primitives": [
        {
          "attributes": {
            "NORMAL": 16,
            "POSITION": 15
          },
          "indices": 17,
          "material": 2,
          "mode": 4
        }
      ]
    },
    {
      "primitives": [
        {
          "attributes": {
            "NORMAL": 19,
            "POSITION": 18
          },
          "indices": 20,
          "material": 2,
          "mode": 4
        }
      ]
    },
    {
      "primitives": [
        {
          "attributes": {
            "NORMAL": 22,
            "POSITION": 21
          },
          "indices": 23,
          "material": 3,
          "mode": 4
        }
      ]
    },
    {
      "primitives": [
        {
          "attributes": {
            "NORMAL": 25,
            "POSITION": 24
          },
          "indices": 26,
          "material": 3,
          "mode": 4
        }
      ]
    },
    {
      "primitives": [
        {
          "attributes": {
            "NORMAL": 28,
            "POSITION": 27
          },
          "indices": 29,
          "material": 3,
          "mode": 4
        }
      ]
    },
    {
      "primitives": [
        {
          "attributes": {
            "NORMAL": 31,
            "POSITION": 30
          },
          "indices": 32,
          "material": 3,
          "mode": 4
        }
      ]
    }
  ],
  "nodes": [
    {
      "children": [
        1
      ],
      "name": "RootNode (gltf orientation matrix)",
      "rotation": [
        -0.70710678118654746,
        -0,
        -0,
        0.70710678118654757
      ]
    },
    {
      "children": [
        2
      ],
      "matrix": [
        0,
        0,
        1,
        0,
        0,
        1,
        0,
        0,
        -1,
        0,
        0,
        0,
        0,
        0,
        0,
        1
      ],
      "name": "RootNode (model correction matrix)"
    },
    {
      "children": [
        3,
        4,
        5,
        6,
        7,
        8,
        9,
        10,
        11,
        12
      ],
      "name": "lightsaber.obj.cleaner.materialmerger.gles"
    },
    {
      "mesh": 0,
      "name": ""
    },
    {
      "mesh": 1,
      "name": ""
    },
    {
      "mesh": 2,
      "name": ""
    },
    {
      "mesh": 3,
      "name": ""
    },
    {
      "mesh": 4,
      "name": ""
    },
    {
      "mesh": 5,
      "name": ""
    },
    {
      "mesh": 6,
      "name": ""
    },
    {
      "mesh": 7,
      "name": ""
    },
    {
      "mesh": 8,
      "name": ""
    },
    {
      "mesh": 9,
      "name": ""
    }
  ],
  "samplers": [
    {
      "magFilter": 9729,
      "minFilter": 9987,
      "wrapS": 10497,
      "wrapT": 10497
    }
  ],
  "scene": 0,
  "scenes": [
    {
      "name": "OSG_Scene",
      "nodes": [
        0
      ]
    }
  ],
  "textures": [
    {
      "sampler": 0,
      "source": 0
    }
  ]
}

