# MagicaVoxel @ Ephtracy

# group
g cube

# material
mtllib cube.mtl
usemtl palette

# normals
vn -1 0 0
vn 1 0 0
vn 0 0 1
vn 0 0 -1
vn 0 -1 0
vn 0 1 0

# texcoords
vt 0.666016 0.5
vt 0.857422 0.5
vt 0.919922 0.5

# verts
v -20 0 20
v -20 0 19
v -20 0 -20
v -20 40 20
v -20 40 19
v -20 40 -20
v -8 39 20
v -8 39 19
v -8 39 18
v -8 40 20
v -8 40 19
v -8 40 18
v -7 38 20
v -7 38 19
v -7 38 18
v -7 39 20
v -7 39 19
v -7 39 18
v -6 37 20
v -6 37 19
v -6 37 18
v -6 38 20
v -6 38 19
v -6 38 18
v -5 36 20
v -5 36 19
v -5 36 18
v -5 37 20
v -5 37 19
v -5 37 18
v -4 35 20
v -4 35 19
v -4 35 18
v -4 36 20
v -4 36 19
v -4 36 18
v -3 34 20
v -3 34 19
v -3 34 18
v -3 35 20
v -3 35 19
v -3 35 18
v -2 33 20
v -2 33 19
v -2 33 18
v -2 34 20
v -2 34 19
v -2 34 18
v -1 32 20
v -1 32 19
v -1 32 18
v -1 33 20
v -1 33 19
v -1 33 18
v 10 0 20
v 10 0 19
v 10 6 20
v 10 6 19
v 10 32 20
v 10 32 19
v 10 32 16
v 10 40 20
v 10 40 19
v 10 40 16
v -10 0 20
v -10 0 19
v -10 6 20
v -10 6 19
v -10 32 20
v -10 32 19
v -10 32 18
v -10 40 20
v -10 40 19
v -10 40 18
v 1 32 20
v 1 32 19
v 1 32 16
v 1 33 20
v 1 33 19
v 1 33 16
v 2 33 20
v 2 33 19
v 2 33 16
v 2 34 20
v 2 34 19
v 2 34 16
v 3 34 20
v 3 34 19
v 3 34 16
v 3 35 20
v 3 35 19
v 3 35 16
v 4 35 20
v 4 35 19
v 4 35 16
v 4 36 20
v 4 36 19
v 4 36 16
v 5 36 20
v 5 36 19
v 5 36 16
v 5 37 20
v 5 37 19
v 5 37 16
v 6 37 20
v 6 37 19
v 6 37 16
v 6 38 20
v 6 38 19
v 6 38 16
v 7 38 20
v 7 38 19
v 7 38 16
v 7 39 20
v 7 39 19
v 7 39 16
v 8 39 20
v 8 39 19
v 8 39 16
v 8 40 20
v 8 40 19
v 8 40 16
v 20 0 20
v 20 0 19
v 20 0 -20
v 20 40 20
v 20 40 19
v 20 40 -20
v -20 0 20
v -20 40 20
v -10 0 20
v -10 6 20
v -10 32 20
v -10 40 20
v -8 39 20
v -8 40 20
v -7 38 20
v -7 39 20
v -6 37 20
v -6 38 20
v -5 36 20
v -5 37 20
v -4 35 20
v -4 36 20
v -3 34 20
v -3 35 20
v -2 33 20
v -2 34 20
v -1 32 20
v -1 33 20
v 1 32 20
v 1 33 20
v 2 33 20
v 2 34 20
v 3 34 20
v 3 35 20
v 4 35 20
v 4 36 20
v 5 36 20
v 5 37 20
v 6 37 20
v 6 38 20
v 7 38 20
v 7 39 20
v 8 39 20
v 8 40 20
v 10 0 20
v 10 6 20
v 10 32 20
v 10 40 20
v 20 0 20
v 20 40 20
v -10 0 19
v -10 6 19
v 10 0 19
v 10 6 19
v -10 32 18
v -10 40 18
v -8 39 18
v -8 40 18
v -7 38 18
v -7 39 18
v -6 37 18
v -6 38 18
v -5 36 18
v -5 37 18
v -4 35 18
v -4 36 18
v -3 34 18
v -3 35 18
v -2 33 18
v -2 34 18
v -1 32 18
v -1 33 18
v 1 32 16
v 1 33 16
v 2 33 16
v 2 34 16
v 3 34 16
v 3 35 16
v 4 35 16
v 4 36 16
v 5 36 16
v 5 37 16
v 6 37 16
v 6 38 16
v 7 38 16
v 7 39 16
v 8 39 16
v 8 40 16
v 10 32 16
v 10 40 16
v -20 0 -20
v -20 40 -20
v 20 0 -20
v 20 40 -20
v -20 0 20
v -10 0 20
v 10 0 20
v 20 0 20
v -20 0 19
v -10 0 19
v 10 0 19
v 20 0 19
v -20 0 -20
v 20 0 -20
v -10 6 20
v 10 6 20
v -10 6 19
v 10 6 19
v -2 33 20
v -1 33 20
v 1 33 20
v 2 33 20
v -2 33 19
v -1 33 19
v 1 33 19
v 2 33 19
v -2 33 18
v -1 33 18
v 1 33 16
v 2 33 16
v -3 34 20
v -2 34 20
v 2 34 20
v 3 34 20
v -3 34 19
v -2 34 19
v 2 34 19
v 3 34 19
v -3 34 18
v -2 34 18
v 2 34 16
v 3 34 16
v -4 35 20
v -3 35 20
v 3 35 20
v 4 35 20
v -4 35 19
v -3 35 19
v 3 35 19
v 4 35 19
v -4 35 18
v -3 35 18
v 3 35 16
v 4 35 16
v -5 36 20
v -4 36 20
v 4 36 20
v 5 36 20
v -5 36 19
v -4 36 19
v 4 36 19
v 5 36 19
v -5 36 18
v -4 36 18
v 4 36 16
v 5 36 16
v -6 37 20
v -5 37 20
v 5 37 20
v 6 37 20
v -6 37 19
v -5 37 19
v 5 37 19
v 6 37 19
v -6 37 18
v -5 37 18
v 5 37 16
v 6 37 16
v -7 38 20
v -6 38 20
v 6 38 20
v 7 38 20
v -7 38 19
v -6 38 19
v 6 38 19
v 7 38 19
v -7 38 18
v -6 38 18
v 6 38 16
v 7 38 16
v -8 39 20
v -7 39 20
v 7 39 20
v 8 39 20
v -8 39 19
v -7 39 19
v 7 39 19
v 8 39 19
v -8 39 18
v -7 39 18
v 7 39 16
v 8 39 16
v -10 32 20
v -1 32 20
v 1 32 20
v 10 32 20
v -10 32 19
v -1 32 19
v 1 32 19
v 10 32 19
v -10 32 18
v -1 32 18
v 1 32 16
v 10 32 16
v -20 40 20
v -10 40 20
v -8 40 20
v 8 40 20
v 10 40 20
v 20 40 20
v -20 40 19
v -10 40 19
v -8 40 19
v 8 40 19
v 10 40 19
v 20 40 19
v -10 40 18
v -8 40 18
v -10 40 17
v -8 40 17
v 8 40 16
v 10 40 16
v 8 40 15
v 10 40 15
v -20 40 -20
v 20 40 -20

# faces
f 4/3/1 2/3/1 1/3/1
f 5/1/1 3/1/1 2/1/1
f 5/3/1 2/3/1 4/3/1
f 6/1/1 3/1/1 5/1/1
f 10/2/1 8/2/1 7/2/1
f 11/1/1 9/1/1 8/1/1
f 11/2/1 8/2/1 10/2/1
f 12/1/1 9/1/1 11/1/1
f 16/2/1 14/2/1 13/2/1
f 17/1/1 15/1/1 14/1/1
f 17/2/1 14/2/1 16/2/1
f 18/1/1 15/1/1 17/1/1
f 22/2/1 20/2/1 19/2/1
f 23/1/1 21/1/1 20/1/1
f 23/2/1 20/2/1 22/2/1
f 24/1/1 21/1/1 23/1/1
f 28/2/1 26/2/1 25/2/1
f 29/1/1 27/1/1 26/1/1
f 29/2/1 26/2/1 28/2/1
f 30/1/1 27/1/1 29/1/1
f 34/2/1 32/2/1 31/2/1
f 35/1/1 33/1/1 32/1/1
f 35/2/1 32/2/1 34/2/1
f 36/1/1 33/1/1 35/1/1
f 40/2/1 38/2/1 37/2/1
f 41/1/1 39/1/1 38/1/1
f 41/2/1 38/2/1 40/2/1
f 42/1/1 39/1/1 41/1/1
f 46/2/1 44/2/1 43/2/1
f 47/1/1 45/1/1 44/1/1
f 47/2/1 44/2/1 46/2/1
f 48/1/1 45/1/1 47/1/1
f 52/2/1 50/2/1 49/2/1
f 53/1/1 51/1/1 50/1/1
f 53/2/1 50/2/1 52/2/1
f 54/1/1 51/1/1 53/1/1
f 57/3/1 56/3/1 55/3/1
f 58/3/1 56/3/1 57/3/1
f 62/3/1 60/3/1 59/3/1
f 63/1/1 61/1/1 60/1/1
f 63/3/1 60/3/1 62/3/1
f 64/1/1 61/1/1 63/1/1
f 65/3/2 66/3/2 67/3/2
f 67/3/2 66/3/2 68/3/2
f 69/3/2 70/3/2 72/3/2
f 70/1/2 71/1/2 73/1/2
f 72/3/2 70/3/2 73/3/2
f 73/1/2 71/1/2 74/1/2
f 75/2/2 76/2/2 78/2/2
f 76/1/2 77/1/2 79/1/2
f 78/2/2 76/2/2 79/2/2
f 79/1/2 77/1/2 80/1/2
f 81/2/2 82/2/2 84/2/2
f 82/1/2 83/1/2 85/1/2
f 84/2/2 82/2/2 85/2/2
f 85/1/2 83/1/2 86/1/2
f 87/2/2 88/2/2 90/2/2
f 88/1/2 89/1/2 91/1/2
f 90/2/2 88/2/2 91/2/2
f 91/1/2 89/1/2 92/1/2
f 93/2/2 94/2/2 96/2/2
f 94/1/2 95/1/2 97/1/2
f 96/2/2 94/2/2 97/2/2
f 97/1/2 95/1/2 98/1/2
f 99/2/2 100/2/2 102/2/2
f 100/1/2 101/1/2 103/1/2
f 102/2/2 100/2/2 103/2/2
f 103/1/2 101/1/2 104/1/2
f 105/2/2 106/2/2 108/2/2
f 106/1/2 107/1/2 109/1/2
f 108/2/2 106/2/2 109/2/2
f 109/1/2 107/1/2 110/1/2
f 111/2/2 112/2/2 114/2/2
f 112/1/2 113/1/2 115/1/2
f 114/2/2 112/2/2 115/2/2
f 115/1/2 113/1/2 116/1/2
f 117/2/2 118/2/2 120/2/2
f 118/1/2 119/1/2 121/1/2
f 120/2/2 118/2/2 121/2/2
f 121/1/2 119/1/2 122/1/2
f 123/3/2 124/3/2 126/3/2
f 124/1/2 125/1/2 127/1/2
f 126/3/2 124/3/2 127/3/2
f 127/1/2 125/1/2 128/1/2
f 131/3/3 130/3/3 129/3/3
f 132/3/3 130/3/3 131/3/3
f 133/3/3 130/3/3 132/3/3
f 134/3/3 130/3/3 133/3/3
f 138/2/3 136/2/3 135/2/3
f 140/2/3 138/2/3 137/2/3
f 142/2/3 140/2/3 139/2/3
f 144/2/3 142/2/3 141/2/3
f 146/2/3 144/2/3 143/2/3
f 148/2/3 146/2/3 145/2/3
f 149/3/3 133/3/3 132/3/3
f 150/2/3 148/2/3 147/2/3
f 151/3/3 149/3/3 132/3/3
f 151/2/3 150/2/3 149/2/3
f 152/2/3 148/2/3 150/2/3
f 152/2/3 150/2/3 151/2/3
f 153/2/3 148/2/3 152/2/3
f 154/2/3 146/2/3 148/2/3
f 154/2/3 148/2/3 153/2/3
f 155/2/3 146/2/3 154/2/3
f 156/2/3 144/2/3 146/2/3
f 156/2/3 146/2/3 155/2/3
f 157/2/3 144/2/3 156/2/3
f 158/2/3 142/2/3 144/2/3
f 158/2/3 144/2/3 157/2/3
f 159/2/3 142/2/3 158/2/3
f 160/2/3 140/2/3 142/2/3
f 160/2/3 142/2/3 159/2/3
f 161/2/3 140/2/3 160/2/3
f 162/2/3 138/2/3 140/2/3
f 162/2/3 140/2/3 161/2/3
f 163/2/3 138/2/3 162/2/3
f 164/2/3 136/2/3 138/2/3
f 164/2/3 138/2/3 163/2/3
f 165/2/3 136/2/3 164/2/3
f 166/2/3 136/2/3 165/2/3
f 168/3/3 151/3/3 132/3/3
f 169/3/3 151/3/3 168/3/3
f 171/3/3 168/3/3 167/3/3
f 171/3/3 170/3/3 169/3/3
f 171/3/3 169/3/3 168/3/3
f 172/3/3 170/3/3 171/3/3
f 175/1/3 174/1/3 173/1/3
f 176/1/3 174/1/3 175/1/3
f 179/3/3 178/3/3 177/3/3
f 180/3/3 178/3/3 179/3/3
f 181/3/3 179/3/3 177/3/3
f 182/3/3 179/3/3 181/3/3
f 183/3/3 181/3/3 177/3/3
f 184/3/3 181/3/3 183/3/3
f 185/3/3 183/3/3 177/3/3
f 186/3/3 183/3/3 185/3/3
f 187/3/3 185/3/3 177/3/3
f 188/3/3 185/3/3 187/3/3
f 189/3/3 187/3/3 177/3/3
f 190/3/3 187/3/3 189/3/3
f 191/3/3 189/3/3 177/3/3
f 192/3/3 189/3/3 191/3/3
f 193/3/3 191/3/3 177/3/3
f 194/3/3 191/3/3 193/3/3
f 197/3/3 196/3/3 195/3/3
f 199/3/3 198/3/3 197/3/3
f 201/3/3 200/3/3 199/3/3
f 203/3/3 202/3/3 201/3/3
f 205/3/3 204/3/3 203/3/3
f 207/3/3 206/3/3 205/3/3
f 209/3/3 208/3/3 207/3/3
f 211/3/3 197/3/3 195/3/3
f 211/3/3 210/3/3 209/3/3
f 211/3/3 209/3/3 207/3/3
f 211/3/3 207/3/3 205/3/3
f 211/3/3 205/3/3 203/3/3
f 211/3/3 203/3/3 201/3/3
f 211/3/3 201/3/3 199/3/3
f 211/3/3 199/3/3 197/3/3
f 212/3/3 210/3/3 211/3/3
f 213/1/4 214/1/4 215/1/4
f 215/1/4 214/1/4 216/1/4
f 221/3/5 218/3/5 217/3/5
f 222/3/5 218/3/5 221/3/5
f 223/3/5 220/3/5 219/3/5
f 224/3/5 220/3/5 223/3/5
f 225/1/5 222/1/5 221/1/5
f 225/1/5 223/1/5 222/1/5
f 225/1/5 224/1/5 223/1/5
f 226/1/5 224/1/5 225/1/5
f 229/3/5 228/3/5 227/3/5
f 230/3/5 228/3/5 229/3/5
f 235/2/5 232/2/5 231/2/5
f 236/2/5 232/2/5 235/2/5
f 237/2/5 234/2/5 233/2/5
f 238/2/5 234/2/5 237/2/5
f 239/1/5 236/1/5 235/1/5
f 240/1/5 236/1/5 239/1/5
f 241/1/5 238/1/5 237/1/5
f 242/1/5 238/1/5 241/1/5
f 247/2/5 244/2/5 243/2/5
f 248/2/5 244/2/5 247/2/5
f 249/2/5 246/2/5 245/2/5
f 250/2/5 246/2/5 249/2/5
f 251/1/5 248/1/5 247/1/5
f 252/1/5 248/1/5 251/1/5
f 253/1/5 250/1/5 249/1/5
f 254/1/5 250/1/5 253/1/5
f 259/2/5 256/2/5 255/2/5
f 260/2/5 256/2/5 259/2/5
f 261/2/5 258/2/5 257/2/5
f 262/2/5 258/2/5 261/2/5
f 263/1/5 260/1/5 259/1/5
f 264/1/5 260/1/5 263/1/5
f 265/1/5 262/1/5 261/1/5
f 266/1/5 262/1/5 265/1/5
f 271/2/5 268/2/5 267/2/5
f 272/2/5 268/2/5 271/2/5
f 273/2/5 270/2/5 269/2/5
f 274/2/5 270/2/5 273/2/5
f 275/1/5 272/1/5 271/1/5
f 276/1/5 272/1/5 275/1/5
f 277/1/5 274/1/5 273/1/5
f 278/1/5 274/1/5 277/1/5
f 283/2/5 280/2/5 279/2/5
f 284/2/5 280/2/5 283/2/5
f 285/2/5 282/2/5 281/2/5
f 286/2/5 282/2/5 285/2/5
f 287/1/5 284/1/5 283/1/5
f 288/1/5 284/1/5 287/1/5
f 289/1/5 286/1/5 285/1/5
f 290/1/5 286/1/5 289/1/5
f 295/2/5 292/2/5 291/2/5
f 296/2/5 292/2/5 295/2/5
f 297/2/5 294/2/5 293/2/5
f 298/2/5 294/2/5 297/2/5
f 299/1/5 296/1/5 295/1/5
f 300/1/5 296/1/5 299/1/5
f 301/1/5 298/1/5 297/1/5
f 302/1/5 298/1/5 301/1/5
f 307/2/5 304/2/5 303/2/5
f 308/2/5 304/2/5 307/2/5
f 309/2/5 306/2/5 305/2/5
f 310/2/5 306/2/5 309/2/5
f 311/1/5 308/1/5 307/1/5
f 312/1/5 308/1/5 311/1/5
f 313/1/5 310/1/5 309/1/5
f 314/1/5 310/1/5 313/1/5
f 315/3/6 316/3/6 319/3/6
f 319/3/6 316/3/6 320/3/6
f 317/3/6 318/3/6 321/3/6
f 321/3/6 318/3/6 322/3/6
f 319/3/6 320/3/6 323/3/6
f 323/3/6 320/3/6 324/3/6
f 321/3/6 322/3/6 325/3/6
f 325/3/6 322/3/6 326/3/6
f 327/3/6 328/3/6 333/3/6
f 333/3/6 328/3/6 334/3/6
f 329/2/6 330/2/6 335/2/6
f 335/2/6 330/2/6 336/2/6
f 331/3/6 332/3/6 337/3/6
f 337/3/6 332/3/6 338/3/6
f 333/1/6 334/1/6 339/1/6
f 335/1/6 336/1/6 340/1/6
f 333/1/6 339/1/6 341/1/6
f 339/3/6 340/3/6 341/3/6
f 340/1/6 336/1/6 342/1/6
f 341/3/6 340/3/6 342/3/6
f 341/1/6 342/1/6 343/1/6
f 342/1/6 336/1/6 343/1/6
f 337/1/6 338/1/6 344/1/6
f 341/1/6 343/1/6 345/1/6
f 343/3/6 344/3/6 345/3/6
f 344/1/6 338/1/6 346/1/6
f 345/3/6 344/3/6 346/3/6
f 333/1/6 341/1/6 347/1/6
f 341/1/6 345/1/6 347/1/6
f 345/1/6 346/1/6 347/1/6
f 346/1/6 338/1/6 348/1/6
f 347/1/6 346/1/6 348/1/6
